TITLE ""
FILE "P1Q_t_1210-1219.mp3" MP3
  TRACK 01 AUDIO
    TITLE "P1Q_t_1210-1219_01"
    INDEX 01 00:00:00
  TRACK 02 AUDIO
    TITLE "P1Q_t_1210-1219_02"
    INDEX 01 00:01:14
  TRACK 03 AUDIO
    TITLE "P1Q_t_1210-1219_03"
    INDEX 01 00:01:33
  TRACK 04 AUDIO
    TITLE "P1Q_t_1210-1219_04"
    INDEX 01 00:04:36
  TRACK 05 AUDIO
    TITLE "P1Q_t_1210-1219_05"
    INDEX 01 00:04:55
  TRACK 06 AUDIO
    TITLE "P1Q_t_1210-1219_06"
    INDEX 01 00:08:43
  TRACK 07 AUDIO
    TITLE "P1Q_t_1210-1219_07"
    INDEX 01 00:09:11
  TRACK 08 AUDIO
    TITLE "P1Q_t_1210-1219_08"
    INDEX 01 00:10:20
  TRACK 09 AUDIO
    TITLE "P1Q_t_1210-1219_09"
    INDEX 01 00:10:40
  TRACK 10 AUDIO
    TITLE "P1Q_t_1210-1219_10"
    INDEX 01 00:12:13
  TRACK 11 AUDIO
    TITLE "P1Q_t_1210-1219_11"
    INDEX 01 00:12:33
  TRACK 12 AUDIO
    TITLE "P1Q_t_1210-1219_12"
    INDEX 01 00:17:34
  TRACK 13 AUDIO
    TITLE "P1Q_t_1210-1219_13"
    INDEX 01 00:18:04
  TRACK 14 AUDIO
    TITLE "P1Q_t_1210-1219_14"
    INDEX 01 00:19:33
  TRACK 15 AUDIO
    TITLE "P1Q_t_1210-1219_15"
    INDEX 01 00:19:55
  TRACK 16 AUDIO
    TITLE "P1Q_t_1210-1219_16"
    INDEX 01 00:21:52
  TRACK 17 AUDIO
    TITLE "P1Q_t_1210-1219_17"
    INDEX 01 00:21:71
  TRACK 18 AUDIO
    TITLE "P1Q_t_1210-1219_18"
    INDEX 01 00:25:12
  TRACK 19 AUDIO
    TITLE "P1Q_t_1210-1219_19"
    INDEX 01 00:25:59
  TRACK 20 AUDIO
    TITLE "P1Q_t_1210-1219_20"
    INDEX 01 00:26:70
  TRACK 21 AUDIO
    TITLE "P1Q_t_1210-1219_21"
    INDEX 01 00:27:15
  TRACK 22 AUDIO
    TITLE "P1Q_t_1210-1219_22"
    INDEX 01 00:30:13
  TRACK 23 AUDIO
    TITLE "P1Q_t_1210-1219_23"
    INDEX 01 00:30:33
  TRACK 24 AUDIO
    TITLE "P1Q_t_1210-1219_24"
    INDEX 01 00:34:13
  TRACK 25 AUDIO
    TITLE "P1Q_t_1210-1219_25"
    INDEX 01 00:34:58
  TRACK 26 AUDIO
    TITLE "P1Q_t_1210-1219_26"
    INDEX 01 00:36:18
  TRACK 27 AUDIO
    TITLE "P1Q_t_1210-1219_27"
    INDEX 01 00:36:37
  TRACK 28 AUDIO
    TITLE "P1Q_t_1210-1219_28"
    INDEX 01 00:39:61
  TRACK 29 AUDIO
    TITLE "P1Q_t_1210-1219_29"
    INDEX 01 00:40:06
  TRACK 30 AUDIO
    TITLE "P1Q_t_1210-1219_30"
    INDEX 01 00:44:21
  TRACK 31 AUDIO
    TITLE "P1Q_t_1210-1219_31"
    INDEX 01 00:44:66
  TRACK 32 AUDIO
    TITLE "P1Q_t_1210-1219_32"
    INDEX 01 00:46:14
  TRACK 33 AUDIO
    TITLE "P1Q_t_1210-1219_33"
    INDEX 01 00:46:34
  TRACK 34 AUDIO
    TITLE "P1Q_t_1210-1219_34"
    INDEX 01 00:48:31
  TRACK 35 AUDIO
    TITLE "P1Q_t_1210-1219_35"
    INDEX 01 00:48:50
  TRACK 36 AUDIO
    TITLE "P1Q_t_1210-1219_36"
    INDEX 01 00:54:18
  TRACK 37 AUDIO
    TITLE "P1Q_t_1210-1219_37"
    INDEX 01 00:54:63
  TRACK 38 AUDIO
    TITLE "P1Q_t_1210-1219_38"
    INDEX 01 00:56:03
  TRACK 39 AUDIO
    TITLE "P1Q_t_1210-1219_39"
    INDEX 01 00:56:25
  TRACK 40 AUDIO
    TITLE "P1Q_t_1210-1219_40"
    INDEX 01 00:58:72
  TRACK 41 AUDIO
    TITLE "P1Q_t_1210-1219_41"
    INDEX 01 00:59:19
  TRACK 42 AUDIO
    TITLE "P1Q_t_1210-1219_42"
    INDEX 01 01:02:35
  TRACK 43 AUDIO
    TITLE "P1Q_t_1210-1219_43"
    INDEX 01 01:03:05
  TRACK 44 AUDIO
    TITLE "P1Q_t_1210-1219_44"
    INDEX 01 01:04:20
  TRACK 45 AUDIO
    TITLE "P1Q_t_1210-1219_45"
    INDEX 01 01:04:42
  TRACK 46 AUDIO
    TITLE "P1Q_t_1210-1219_46"
    INDEX 01 01:06:05
  TRACK 47 AUDIO
    TITLE "P1Q_t_1210-1219_47"
    INDEX 01 01:06:25
  TRACK 48 AUDIO
    TITLE "P1Q_t_1210-1219_48"
    INDEX 01 01:11:08
  TRACK 49 AUDIO
    TITLE "P1Q_t_1210-1219_49"
    INDEX 01 01:11:53
  TRACK 50 AUDIO
    TITLE "P1Q_t_1210-1219_50"
    INDEX 01 01:13:17
  TRACK 51 AUDIO
    TITLE "P1Q_t_1210-1219_51"
    INDEX 01 01:13:37
  TRACK 52 AUDIO
    TITLE "P1Q_t_1210-1219_52"
    INDEX 01 01:16:41
  TRACK 53 AUDIO
    TITLE "P1Q_t_1210-1219_53"
    INDEX 01 01:16:60
  TRACK 54 AUDIO
    TITLE "P1Q_t_1210-1219_54"
    INDEX 01 01:21:38
  TRACK 55 AUDIO
    TITLE "P1Q_t_1210-1219_55"
    INDEX 01 01:22:06
  TRACK 56 AUDIO
    TITLE "P1Q_t_1210-1219_56"
    INDEX 01 01:23:23
  TRACK 57 AUDIO
    TITLE "P1Q_t_1210-1219_57"
    INDEX 01 01:23:45
  TRACK 58 AUDIO
    TITLE "P1Q_t_1210-1219_58"
    INDEX 01 01:26:51
  TRACK 59 AUDIO
    TITLE "P1Q_t_1210-1219_59"
    INDEX 01 01:26:71
  TRACK 60 AUDIO
    TITLE "P1Q_t_1210-1219_60"
    INDEX 01 01:31:68
